<?xml version="1.0" standalone="no"?>
<!DOCTYPE svg PUBLIC "-//W3C//DTD SVG 20010904//EN"
 "http://www.w3.org/TR/2001/REC-SVG-20010904/DTD/svg10.dtd">
<svg version="1.0" xmlns="http://www.w3.org/2000/svg"
 width="460.000000pt" height="460.000000pt" viewBox="0 0 460.000000 460.000000"
 preserveAspectRatio="xMidYMid meet">
<metadata>
Created by potrace 1.14, written by Peter Selinger 2001-2017
</metadata>
<g transform="translate(0.000000,460.000000) scale(0.100000,-0.100000)"
fill="#000000" stroke="none">
<path d="M2297 4451 c-41 -69 -153 -167 -252 -219 -142 -75 -236 -95 -435 -96
-158 0 -263 22 -399 85 -73 34 -183 101 -218 133 -6 6 -36 35 -66 64 -31 30
-60 51 -65 49 -4 -3 -8 -633 -7 -1424 1 -1119 4 -1427 14 -1463 16 -59 65
-145 101 -180 29 -28 114 -90 124 -90 2 0 71 -32 153 -71 81 -39 175 -84 208
-99 78 -36 218 -102 434 -206 96 -46 175 -84 177 -84 2 0 58 -27 124 -59 67
-33 129 -58 138 -56 10 1 80 33 157 70 77 37 185 89 240 115 55 26 125 62 155
80 30 18 56 32 58 31 2 -1 66 28 222 101 156 74 195 93 198 101 2 4 10 7 18 7
8 0 22 4 32 9 9 6 55 28 102 50 134 64 208 138 251 252 20 53 21 67 21 1470 1
779 -2 1421 -6 1428 -5 8 -23 -4 -55 -36 -26 -26 -60 -57 -75 -68 -16 -11 -33
-25 -40 -30 -30 -27 -168 -103 -216 -120 -3 -1 -18 -7 -35 -14 -135 -56 -444
-74 -524 -31 -12 6 -21 8 -21 6 0 -3 -18 1 -40 9 -22 8 -40 12 -40 10 0 -11
-162 72 -215 110 -64 46 -154 135 -174 173 -15 29 -23 28 -44 -7z"/>
<path d="M913 1221 c-22 -6 -46 -24 -69 -53 -13 -17 -74 -207 -105 -329 l-22
-87 29 -39 c16 -22 43 -51 59 -65 31 -25 145 -91 145 -83 0 3 11 0 25 -5 14
-5 58 -12 98 -15 39 -4 78 -8 85 -10 17 -6 52 30 54 58 1 12 2 29 4 37 1 8 2
21 3 28 1 9 14 12 49 8 88 -9 105 -22 95 -76 -4 -19 -7 -75 -8 -123 l0 -89
190 -64 c105 -36 195 -66 202 -68 7 -1 16 -5 19 -9 4 -4 16 -7 26 -7 10 0 26
-4 36 -10 9 -5 120 -43 247 -85 225 -75 230 -76 265 -61 27 12 282 97 335 113
20 6 330 112 330 113 0 1 7 3 15 5 19 4 106 34 140 48 14 5 32 9 41 8 8 -1 24
7 33 18 19 21 19 52 0 206 -6 49 -5 52 23 64 41 20 123 25 125 9 0 -7 2 -17 3
-23 2 -5 3 -22 4 -36 3 -59 40 -73 155 -57 100 15 221 69 272 123 12 13 31 39
43 58 l22 36 -37 138 c-20 76 -42 153 -49 171 -8 17 -12 32 -10 32 8 0 -20 56
-42 83 -24 31 -70 48 -111 41 -61 -11 -100 -25 -115 -42 -16 -17 -16 -24 3
-97 30 -117 30 -117 -46 -131 -15 -3 -32 -6 -38 -7 -6 -1 -12 14 -14 33 -5 48
-46 90 -88 90 -54 0 -136 -21 -187 -47 -54 -29 -116 -87 -118 -112 -1 -9 -2
-23 -3 -31 -1 -8 2 -23 6 -32 5 -10 3 -20 -3 -24 -15 -9 -258 -94 -288 -100
-13 -3 -35 -11 -50 -18 -14 -7 -46 -18 -71 -26 -25 -7 -103 -33 -174 -57 -150
-50 -159 -52 -206 -31 -35 15 -96 37 -115 42 -20 5 -60 17 -80 25 -11 4 -36
13 -55 20 -44 15 -255 85 -340 113 -83 27 -93 34 -79 60 39 73 -85 182 -237
209 -103 18 -149 -8 -156 -86 -3 -27 -6 -30 -33 -26 -33 3 -85 27 -85 39 0 4
7 39 16 77 24 108 24 107 -25 134 -44 24 -98 33 -138 22z m103 -60 c33 -20 34
-25 9 -131 -2 -8 -4 -18 -4 -22 -3 -25 -93 21 -138 69 -29 30 -29 32 6 71 35
38 79 42 127 13z m2696 -12 c26 -26 29 -33 20 -53 -6 -13 -39 -42 -73 -65 -73
-47 -73 -47 -96 49 -13 55 -13 55 15 77 41 34 96 31 134 -8z m-2815 -142 c58
-40 173 -91 228 -102 22 -4 45 -11 50 -15 11 -10 11 -156 0 -238 -6 -44 -12
-55 -32 -63 -13 -5 -34 -7 -46 -4 -12 3 -42 7 -67 10 -95 10 -260 119 -260
171 0 37 66 274 76 274 2 0 25 -15 51 -33z m2867 25 c3 -5 7 -19 10 -33 3 -13
12 -51 21 -84 43 -155 43 -153 -5 -208 -23 -26 -48 -47 -56 -47 -8 0 -14 -4
-14 -9 0 -5 -8 -11 -17 -14 -10 -3 -38 -13 -63 -22 -25 -9 -66 -19 -91 -22
-26 -2 -55 -6 -65 -7 -50 -8 -65 40 -69 232 l-1 72 40 10 c101 25 209 72 261
115 33 26 41 29 49 17z m-2341 -46 c50 -24 117 -84 117 -106 0 -6 -27 -36 -60
-68 -32 -32 -66 -75 -75 -95 -16 -39 -24 -44 -41 -27 -6 6 -37 15 -69 20 -32
5 -61 14 -64 19 -4 5 -6 66 -6 135 1 154 5 161 86 152 32 -3 82 -17 112 -30z
m1939 21 c10 -10 13 -49 12 -148 l-1 -134 -49 -8 c-27 -4 -61 -14 -76 -22 -14
-8 -28 -15 -31 -15 -3 0 -17 21 -32 48 -15 26 -47 66 -71 88 -27 26 -44 51
-44 64 0 23 77 107 88 96 3 -3 12 0 20 7 37 31 161 47 184 24z m-1607 -298
c72 -23 135 -44 140 -45 9 -2 63 -22 130 -49 11 -4 27 -9 35 -10 8 -2 63 -19
122 -39 108 -36 139 -42 152 -29 4 5 11 8 14 8 9 0 212 65 237 76 11 4 83 29
160 54 77 25 149 50 160 55 37 16 149 50 165 50 25 0 77 -60 98 -115 11 -28
23 -80 27 -115 3 -36 8 -76 10 -90 5 -29 -6 -50 -26 -54 -8 -2 -21 -6 -29 -9
-26 -10 -354 -118 -370 -122 -8 -2 -35 -11 -60 -20 -25 -9 -65 -23 -90 -30
-25 -7 -68 -20 -95 -30 -28 -9 -54 -18 -60 -19 -5 -2 -17 -6 -25 -9 -38 -16
-141 -47 -153 -47 -11 0 -616 197 -667 217 -8 3 -20 7 -26 8 -7 2 -38 12 -70
23 -33 12 -79 26 -103 32 l-44 11 6 67 c12 142 27 190 78 259 l38 51 58 -18
c32 -10 117 -37 188 -61z"/>
<path d="M1490 669 c0 -6 4 -19 10 -29 6 -12 6 -28 -1 -48 -12 -36 -1 -63 47
-115 6 -6 9 -19 7 -28 -7 -24 25 -32 37 -10 7 14 5 25 -10 44 -17 22 -18 26
-5 37 8 7 15 20 15 29 0 10 6 25 13 35 11 15 18 16 32 9 17 -10 17 -11 -3 -22
-29 -16 -28 -52 3 -81 14 -13 25 -32 25 -42 0 -23 34 -21 36 2 1 8 2 21 3 28
0 6 8 12 17 12 11 0 14 -5 9 -17 -11 -31 -10 -37 7 -41 12 -2 19 5 23 20 13
51 11 63 -12 81 -35 28 -22 32 37 12 l50 -17 -25 -20 c-27 -21 -32 -57 -15
-104 14 -35 25 -22 25 28 0 31 4 42 17 44 18 2 18 0 4 -73 -5 -21 18 -52 27
-36 5 9 16 54 23 92 3 14 9 32 14 40 8 14 9 13 10 -4 0 -11 -5 -37 -11 -59
-19 -70 -19 -78 -1 -74 11 2 24 24 35 58 10 30 23 60 29 68 8 10 8 17 -3 27
-12 12 -78 39 -119 49 -8 2 -41 14 -72 26 -32 12 -59 20 -60 19 -2 -1 -13 3
-26 10 -13 7 -31 14 -40 16 -9 2 -44 13 -76 24 -68 24 -76 25 -76 10z m80 -62
c0 -16 -27 -54 -33 -47 -10 10 6 60 19 60 8 0 14 -6 14 -13z m95 -77 c3 -5 -1
-10 -10 -10 -9 0 -13 5 -10 10 3 6 8 10 10 10 2 0 7 -4 10 -10z"/>
<path d="M3048 651 c-26 -9 -50 -19 -54 -23 -4 -5 -15 -8 -25 -8 -10 0 -30 -5
-46 -12 -15 -6 -36 -13 -46 -15 -10 -1 -32 -11 -50 -20 -18 -9 -36 -16 -41
-14 -6 1 -19 -2 -30 -7 -12 -5 -39 -15 -61 -21 -22 -7 -49 -16 -60 -20 -53
-21 -122 -43 -143 -46 -13 -2 -30 -9 -38 -16 -8 -7 -27 -14 -42 -15 -32 -4
-59 -34 -40 -45 7 -4 20 -3 30 2 14 7 18 6 18 -5 0 -8 -4 -18 -10 -21 -18 -11
-10 -25 15 -25 14 0 25 -4 25 -8 0 -19 -14 -21 -41 -5 -33 20 -45 13 -30 -15
22 -42 95 -39 112 4 5 14 14 22 19 19 6 -4 8 -10 5 -15 -7 -11 22 -33 34 -26
5 4 5 20 0 43 -5 21 -12 49 -15 62 -3 14 -7 28 -10 32 -5 9 59 23 78 17 7 -3
-2 -11 -20 -19 -23 -10 -32 -20 -30 -34 4 -26 36 -31 53 -8 12 15 14 16 20 3
3 -9 7 -33 8 -54 3 -34 2 -37 -19 -33 -27 5 -39 -16 -20 -33 18 -14 77 -10 99
8 22 20 22 37 -4 60 -20 20 -55 129 -44 140 3 3 16 -4 28 -16 17 -17 19 -25 9
-31 -15 -9 -5 -41 13 -41 7 0 25 -10 40 -21 22 -18 29 -19 36 -8 5 9 1 21 -12
35 -13 14 -17 24 -10 28 6 4 8 24 5 48 -4 26 -3 38 4 34 9 -5 23 -47 27 -81 3
-24 18 -45 32 -45 12 0 14 8 8 38 -4 20 -11 43 -17 50 -6 6 -7 12 -4 12 4 0 2
9 -4 19 -6 11 -6 22 -1 25 9 6 20 -18 41 -86 6 -21 18 -38 26 -38 18 0 18 24
-1 75 -19 55 -19 75 3 75 25 0 34 -11 21 -26 -6 -7 -8 -21 -5 -32 9 -27 64
-65 84 -57 15 6 14 9 -6 25 -13 11 -21 24 -17 30 10 17 25 11 36 -13 6 -13 19
-23 30 -24 23 -2 23 2 4 57 -22 63 -20 88 9 96 14 3 33 4 43 2 14 -3 12 -7
-14 -21 -36 -19 -42 -37 -18 -57 12 -10 18 -8 34 11 l18 23 12 -36 c12 -37 37
-56 44 -35 2 6 -3 32 -11 57 -7 25 -14 59 -13 77 0 39 -12 43 -71 24z m-85
-87 c9 -10 -4 -34 -19 -34 -8 0 -14 2 -14 4 0 2 -3 11 -6 20 -4 11 0 16 13 16
11 0 22 -3 26 -6z m-471 -156 c6 -16 -1 -38 -12 -38 -11 0 -21 30 -14 41 8 13
21 11 26 -3z"/>
<path d="M2153 532 c-37 -4 -43 -24 -18 -52 14 -16 12 -17 -22 -15 -26 2 -39
8 -41 19 -4 17 -47 23 -56 7 -9 -14 5 -42 19 -39 8 2 15 -1 17 -7 2 -5 -6 -10
-16 -10 -25 0 -29 -33 -5 -40 22 -7 26 -25 4 -25 -14 0 -33 25 -33 45 -1 23
-22 14 -22 -10 0 -60 40 -93 84 -69 16 8 29 14 30 14 2 0 2 -16 2 -35 -1 -56
18 -43 39 28 11 36 23 69 28 73 12 12 8 -24 -9 -77 -16 -47 -14 -79 4 -79 5 0
17 26 26 58 23 80 28 87 51 62 19 -20 18 -21 -3 -27 -15 -3 -22 -13 -22 -29 0
-33 29 -101 46 -108 16 -6 18 12 5 47 -12 31 16 96 42 97 53 1 -21 63 -78 64
-17 1 -20 8 -20 48 0 55 -8 65 -52 60z m-43 -137 c-17 -20 -31 -6 -23 23 5 21
7 22 21 8 13 -12 13 -18 2 -31z"/>
</g>
</svg>
