<svg xmlns="http://www.w3.org/2000/svg" xmlns:xlink="http://www.w3.org/1999/xlink" viewBox="0,0,256,256" width="48px" height="48px" fill-rule="nonzero" fill="#ffffff"><g fill="#ffffff" fill-rule="nonzero" stroke="none" stroke-width="1" stroke-linecap="butt" stroke-linejoin="miter" stroke-miterlimit="10" stroke-dasharray="" stroke-dashoffset="0" font-family="none" font-weight="none" font-size="none" text-anchor="none" style="mix-blend-mode: normal"><path d="M0,256v-256h256v256z" id="bgRectangle"></path></g><g fill="#ffffff" fill-rule="nonzero" stroke="none" stroke-width="1" stroke-linecap="butt" stroke-linejoin="miter" stroke-miterlimit="10" stroke-dasharray="" stroke-dashoffset="0" font-family="none" font-weight="none" font-size="none" text-anchor="none" style="mix-blend-mode: normal"><g transform="scale(4,4)"><path d="M25.026,46.678l23.281,-28.251c1.075,2.306 1.693,4.866 1.693,7.573c0,6.01 -2.48,9.345 -4.669,12.288c-0.781,1.05 -1.596,2.052 -2.46,3.111c-2.92,3.586 -6.23,8.119 -8.904,15.269c-0.355,0.952 -1.054,1.332 -1.967,1.332c-0.913,0 -1.612,-0.38 -1.967,-1.332c-1.526,-4.079 -3.258,-7.304 -5.007,-9.99zM33.991,32.655l-10.138,12.301c-0.925,-1.302 -1.843,-2.474 -2.725,-3.557c-0.863,-1.06 -1.679,-2.061 -2.46,-3.111c-0.416,-0.559 -0.843,-1.133 -1.261,-1.737l8.681,-10.549c-0.053,0.325 -0.088,0.657 -0.088,0.998c0,3.314 2.686,6 6,6c0.699,0 1.367,-0.126 1.991,-0.345zM29.885,21.391l9.644,-11.719c3.206,1.484 5.897,3.879 7.75,6.858l-9.35,11.346c0.042,-0.287 0.071,-0.578 0.071,-0.876c0,-3.314 -2.686,-6 -6,-6c-0.746,0 -1.457,0.142 -2.115,0.391zM26.227,22.688l-9.948,12.087c-1.284,-2.239 -2.279,-4.97 -2.279,-8.775c0,-3.942 1.289,-7.581 3.446,-10.549zM27.498,21.144l-8.787,-7.242c3.295,-3.616 8.024,-5.902 13.289,-5.902c1.948,0 3.82,0.32 5.578,0.895z"></path></g></g></svg>